<svg version="1.1" id="Layer_1" xmlns="http://www.w3.org/2000/svg" xmlns:xlink="http://www.w3.org/1999/xlink" x="0px" y="0px"
	 width="100%" viewBox="0 0 500 500" enable-background="new 0 0 500 500" xml:space="preserve">
<path fill="#FEFEFE" opacity="1.000000" stroke="none" 
	d="
M1.000000,193.000000 
	C1.000000,130.015610 1.032105,67.531151 0.910508,5.046990 
	C0.904047,1.727074 1.430906,0.897134 4.951257,0.899611 
	C168.910217,1.015005 332.869293,1.018305 496.828247,0.886985 
	C500.649872,0.883924 501.080505,1.937041 501.078644,5.326263 
	C500.988647,169.118637 500.987244,332.911072 501.086273,496.703430 
	C501.088379,500.179474 500.534882,501.109528 496.798523,501.106720 
	C333.006195,500.983093 169.213745,500.982422 5.421422,501.105591 
	C1.496494,501.108551 0.910454,500.028717 0.914265,496.423492 
	C1.021018,395.449097 1.000000,294.474518 1.000000,193.000000 
z"/>
<path fill="#1A1C1C" opacity="1.000000" stroke="none" 
	d="
M195.731277,342.187805 
	C152.800034,322.330200 125.107689,289.954498 114.989044,244.058472 
	C97.848549,166.312698 147.534821,94.662071 219.952011,78.110977 
	C298.527283,60.152458 376.188324,111.989441 388.713409,191.579163 
	C402.001556,276.017700 341.654541,342.973114 270.344208,352.183075 
	C244.820465,355.479553 219.868118,352.930389 195.731277,342.187805 
z"/>
<path fill="#040606" opacity="1.000000" stroke="none" 
	d="
M403.889404,440.138916 
	C299.915344,440.138916 196.432144,440.138916 92.948944,440.138916 
	C92.948853,439.686920 92.948761,439.234955 92.948669,438.782959 
	C198.304230,438.782959 303.659790,438.782959 409.701416,438.782959 
	C407.833252,440.767029 405.963318,439.891418 403.889404,440.138916 
z"/>
<path fill="#040606" opacity="1.000000" stroke="none" 
	d="
M379.000244,446.669556 
	C389.370605,446.669525 399.240997,446.669525 409.111359,446.669525 
	C409.102295,447.155487 409.093262,447.641479 409.084198,448.127441 
	C303.745941,448.127441 198.407684,448.127441 93.140045,448.127441 
	C93.018456,447.782745 92.904388,447.624725 92.934654,447.502411 
	C92.970726,447.356689 93.129395,447.130157 93.237015,447.128998 
	C188.323288,446.095764 283.412628,446.952728 379.000244,446.669556 
z"/>
<path fill="#0B0D0D" opacity="1.000000" stroke="none" 
	d="
M253.314453,23.716427 
	C255.092331,33.319611 263.032837,30.908737 270.355225,32.415062 
	C260.963440,37.643341 257.385681,44.322502 262.492676,54.373367 
	C254.422943,47.134525 246.994568,46.643097 239.900787,54.535637 
	C239.483902,53.522339 239.213058,53.192909 239.289261,53.001976 
	C242.777924,44.260899 241.868332,36.961586 230.822220,32.454903 
	C233.984406,31.895267 235.444763,31.292723 236.817368,31.451040 
	C244.403732,32.326065 247.825623,28.094957 249.504990,21.510847 
	C249.699799,20.747066 250.156555,20.050095 250.517929,19.265577 
	C252.341888,20.137455 252.392075,21.985395 253.314453,23.716427 
z"/>
<path fill="#121414" opacity="1.000000" stroke="none" 
	d="
M251.988388,388.340454 
	C251.650284,400.931152 251.650284,400.931152 263.740723,400.931122 
	C271.900269,400.931091 271.912903,400.930695 271.666168,392.904663 
	C271.615143,391.244629 271.561707,389.565979 271.277344,387.936371 
	C270.880249,385.660736 271.335144,384.619598 273.990814,384.699432 
	C276.227325,384.766632 277.118317,385.004913 277.069061,387.656860 
	C276.874420,398.136841 276.902252,408.624878 277.096741,419.105316 
	C277.143616,421.630493 276.460968,422.118805 274.092590,422.119751 
	C271.570557,422.120758 271.064606,421.350250 271.297943,418.944611 
	C271.682556,414.979370 271.537598,410.965820 271.789124,406.983521 
	C271.946808,404.486938 271.205048,403.338867 268.498840,403.434326 
	C264.010254,403.592651 259.503998,403.638184 255.020721,403.416687 
	C252.220963,403.278442 251.654190,404.450012 251.783890,406.910004 
	C252.002853,411.062561 251.771942,415.246368 252.136826,419.381165 
	C252.400665,422.371185 250.736328,421.962524 248.846542,422.078888 
	C246.461807,422.225677 246.218033,421.261383 246.357651,419.141968 
	C247.047180,408.674744 247.145508,398.191711 246.310013,387.726166 
	C246.148300,385.700745 246.291656,384.690704 248.744690,384.707245 
	C251.135223,384.723389 252.680161,384.997833 251.988388,388.340454 
z"/>
<path fill="#121414" opacity="1.000000" stroke="none" 
	d="
M314.569824,385.112366 
	C324.503967,390.099792 328.373322,398.499756 325.837524,408.836884 
	C323.354248,418.959869 313.501465,424.587738 302.953735,421.907898 
	C293.396637,419.479797 287.856506,409.501068 290.282623,399.085052 
	C292.936584,387.690735 302.550507,382.029510 314.569824,385.112366 
z"/>
<path fill="#121414" opacity="1.000000" stroke="none" 
	d="
M101.547424,397.011963 
	C101.391815,393.356750 101.307335,390.191681 101.058205,387.039612 
	C100.923569,385.336060 101.395576,384.665771 103.213768,384.711060 
	C104.824211,384.751129 105.161217,385.413269 105.113998,386.832092 
	C104.742844,397.983154 104.416428,409.135651 104.069275,420.287506 
	C104.043587,421.112549 104.052017,422.041321 102.985527,422.235931 
	C101.640450,422.481323 100.827362,421.581970 100.091255,420.656189 
	C96.569160,416.226532 93.066750,411.781219 89.543510,407.352478 
	C86.055870,402.968445 82.551704,398.597534 78.364532,393.356995 
	C78.364532,402.536682 78.362587,410.586121 78.366310,418.635559 
	C78.366989,420.096893 79.634033,422.077667 76.553421,422.073303 
	C73.467461,422.068878 74.727539,420.035187 74.739960,418.608032 
	C74.826866,408.617920 74.897972,398.627014 75.115417,388.639435 
	C75.142700,387.386383 73.868431,385.486908 76.031593,384.838837 
	C77.864891,384.289581 79.035439,385.421783 80.139565,386.871094 
	C86.790062,395.600830 93.527657,404.264191 101.549980,412.905487 
	C101.549980,407.772858 101.549980,402.640198 101.547424,397.011963 
z"/>
<path fill="#121414" opacity="1.000000" stroke="none" 
	d="
M204.846161,403.924835 
	C198.884155,402.574188 198.072342,405.409180 198.416672,410.048340 
	C199.199783,420.599213 197.235229,418.795410 207.668945,418.525177 
	C209.497192,418.477844 211.328445,418.330963 213.145081,418.117493 
	C214.690933,417.935822 215.194504,418.571655 215.220047,420.051758 
	C215.245316,421.516418 214.796692,422.096039 213.235611,422.075073 
	C207.244156,421.994690 201.248581,421.934692 195.259857,422.082397 
	C192.928940,422.139893 193.006195,421.000122 193.092987,419.319946 
	C193.642868,408.674530 193.715942,398.024200 193.044983,387.381531 
	C192.929382,385.547699 193.234741,384.689850 195.368469,384.741180 
	C201.024673,384.877350 206.686768,384.815613 212.345764,384.758392 
	C213.882568,384.742859 214.912354,384.897369 214.788193,386.857880 
	C214.651901,389.009888 213.266113,388.578461 211.954498,388.493195 
	C209.795837,388.352905 207.618622,388.003448 205.481369,388.165680 
	C203.301270,388.331116 200.011795,386.643555 199.148514,389.038574 
	C197.945511,392.376038 197.949554,396.306549 198.793213,399.879517 
	C199.222672,401.698395 201.385742,400.746613 202.758606,400.768219 
	C204.747269,400.799500 206.746124,400.581451 208.730255,400.371521 
	C210.189056,400.217194 211.323212,400.137787 211.392944,402.183960 
	C211.465332,404.307709 210.198654,404.144043 208.817566,404.067719 
	C207.654388,404.003448 206.488907,403.981140 204.846161,403.924835 
z"/>
<path fill="#121414" opacity="1.000000" stroke="none" 
	d="
M379.496613,394.954590 
	C378.176147,401.762817 382.338013,400.721405 386.246094,400.873810 
	C388.193481,400.949768 392.027039,397.916718 392.122345,402.189941 
	C392.215302,406.356476 388.235016,403.720642 386.319397,403.797577 
	C378.416046,404.114960 379.613190,402.441986 379.483917,410.584595 
	C379.473358,411.249725 379.482239,411.917969 379.533447,412.580811 
	C380.102844,419.952820 378.930878,418.753693 386.217865,418.660767 
	C388.876495,418.626892 391.537231,418.374207 394.186340,418.113281 
	C395.769501,417.957367 396.184021,418.653992 396.220306,420.092621 
	C396.258484,421.604675 395.714783,422.093506 394.194580,422.073792 
	C388.203125,421.996002 382.209137,421.974792 376.218262,422.069458 
	C374.424591,422.097778 373.955048,421.526947 374.054077,419.776825 
	C374.665894,408.967072 374.719910,398.149963 374.039825,387.341125 
	C373.920990,385.452454 374.332855,384.695160 376.408997,384.742950 
	C382.065430,384.873230 387.727386,384.821625 393.386139,384.753845 
	C394.973175,384.734863 395.924316,384.983307 395.787933,386.898621 
	C395.666473,388.604370 394.692871,388.651520 393.410126,388.550018 
	C391.088165,388.366302 388.763031,388.186523 386.435791,388.112549 
	C379.898529,387.904694 379.897858,387.926300 379.496613,394.954590 
z"/>
<path fill="#151717" opacity="1.000000" stroke="none" 
	d="
M130.754669,386.687469 
	C132.298981,382.691162 133.483749,383.555756 134.672150,386.485657 
	C139.408203,398.161987 144.170929,409.827515 148.979446,421.633759 
	C144.974823,422.821075 142.720108,422.177277 141.453217,417.600861 
	C138.941254,408.526825 135.629562,407.012909 125.984123,408.797791 
	C124.264587,409.115967 123.861992,410.129303 123.396355,411.323334 
	C122.431419,413.797821 121.310379,416.246155 120.688293,418.810699 
	C119.915756,421.995575 118.230865,422.782623 115.145340,421.571777 
	C120.302788,410.053131 125.456329,398.543213 130.754669,386.687469 
z"/>
<path fill="#151717" opacity="1.000000" stroke="none" 
	d="
M160.775238,387.814728 
	C164.241760,384.279053 168.234055,383.580475 172.542084,384.137146 
	C178.385269,384.892212 178.990036,385.847565 177.638290,391.800720 
	C175.668442,392.012482 175.546631,390.005859 174.562790,389.100983 
	C172.103043,386.838684 169.337830,386.168030 166.269745,387.130341 
	C164.135300,387.799835 163.335510,389.741455 163.091415,391.812653 
	C162.705704,395.085480 164.552811,397.181335 167.157364,398.649933 
	C169.898331,400.195404 172.853271,401.373840 175.538071,403.003662 
	C179.559784,405.444977 180.866806,409.255798 180.056824,413.768005 
	C179.265030,418.178894 176.283966,420.704987 172.202911,421.932892 
	C169.473511,422.754120 166.650223,422.731049 163.793106,422.237823 
	C157.133957,421.088196 156.996368,420.968567 158.500183,414.124542 
	C160.456573,415.727051 162.160065,417.483917 164.186676,418.704071 
	C167.926590,420.955688 171.838730,420.152954 173.831665,416.825653 
	C176.074066,413.081757 175.143951,409.630188 171.856354,407.114532 
	C169.646957,405.423920 166.887299,404.471985 164.461761,403.040588 
	C157.903671,399.170380 156.759201,394.719238 160.775238,387.814728 
z"/>
<path fill="#151717" opacity="1.000000" stroke="none" 
	d="
M362.202362,384.764465 
	C364.662109,385.283142 363.971558,386.915619 363.621155,387.970367 
	C363.220123,389.177673 361.931610,388.481720 360.997223,388.426361 
	C351.725189,387.876831 351.672974,387.877411 351.688873,396.937012 
	C351.701721,404.252167 351.697235,411.574646 352.037262,418.878174 
	C352.166931,421.663971 351.277161,422.066467 348.781128,422.133698 
	C345.873993,422.211975 346.154724,420.786316 346.206116,418.769318 
	C346.417847,410.461426 346.305115,402.143036 346.632690,393.841187 
	C346.815399,389.210571 345.465851,387.326202 340.475891,387.926758 
	C338.704132,388.140015 334.800110,390.983856 334.568573,386.788330 
	C334.337738,382.605408 338.406860,385.023804 340.334381,384.927948 
	C347.467865,384.573242 354.628906,384.772888 362.202362,384.764465 
z"/>
<path fill="#191B1B" opacity="1.000000" stroke="none" 
	d="
M428.746460,417.501129 
	C432.277649,416.911560 431.066895,419.317566 431.227966,420.660065 
	C431.403503,422.123260 430.240356,422.063324 429.218536,422.061401 
	C423.241791,422.050201 417.262909,421.957184 411.289398,422.094208 
	C408.992218,422.146881 409.021088,421.029785 409.121979,419.335327 
	C409.753937,408.720001 409.848694,398.097198 409.066223,387.487518 
	C408.902466,385.266754 409.521606,384.569611 411.746887,384.708679 
	C413.660431,384.828247 415.103973,384.475342 415.009583,387.425781 
	C414.717773,396.546417 414.869812,405.680328 414.732269,414.807343 
	C414.691498,417.512482 415.482971,418.695099 418.418945,418.295898 
	C421.699677,417.849823 425.034607,417.802643 428.746460,417.501129 
z"/>
<path fill="#0E1010" opacity="1.000000" stroke="none" 
	d="
M208.154053,58.941376 
	C207.014221,59.903522 206.740173,59.066975 206.748428,58.536472 
	C206.849548,52.048618 203.594452,48.504910 195.689255,47.842850 
	C202.516953,44.894032 208.221710,42.549576 205.734833,34.030102 
	C210.016800,40.152241 214.862122,41.744606 221.753845,37.570629 
	C220.630539,40.107201 220.279022,41.408291 219.551880,42.446232 
	C217.506210,45.366177 217.087402,48.065868 219.843079,50.831009 
	C220.454391,51.444412 221.414673,52.340233 220.825287,53.432594 
	C220.240204,54.516968 218.949371,54.305084 218.190170,53.950157 
	C212.934814,51.493324 210.757187,55.244846 208.154053,58.941376 
z"/>
<path fill="#0E1010" opacity="1.000000" stroke="none" 
	d="
M284.058716,46.968430 
	C282.878204,44.060432 281.688293,41.524746 279.866730,37.643093 
	C286.712952,41.701729 291.657990,40.218964 295.782867,34.045193 
	C293.963348,42.056519 298.708771,45.139606 304.865143,47.634155 
	C297.405334,48.491627 294.494476,52.675159 294.809967,60.145454 
	C291.413208,53.709835 286.600616,51.736080 279.049835,55.230320 
	C281.282227,51.707413 282.665741,49.524078 284.058716,46.968430 
z"/>
<path fill="#121414" opacity="1.000000" stroke="none" 
	d="
M325.510803,58.785690 
	C324.577301,63.241508 324.577301,63.241508 329.919891,68.997627 
	C324.664734,68.992340 320.396851,70.200012 319.500397,76.699997 
	C317.973206,71.034248 314.482422,68.768890 308.717407,68.884422 
	C313.366547,65.896248 314.998413,62.137897 312.754761,56.547009 
	C317.094238,60.517773 320.873596,59.894875 324.850922,57.004539 
	C325.996155,56.172283 325.690308,57.719299 325.510803,58.785690 
z"/>
<path fill="#121414" opacity="1.000000" stroke="none" 
	d="
M192.173798,67.794876 
	C192.904938,69.043571 192.116348,69.105682 191.529266,69.165520 
	C187.210251,69.605667 183.148346,70.352356 182.905899,76.653824 
	C180.539261,71.757980 178.132553,67.956604 171.936127,69.000336 
	C175.595215,65.565331 179.081543,62.383064 174.996613,56.518909 
	C179.613586,57.732197 182.650421,61.867687 186.692093,58.026539 
	C187.567902,57.194180 188.550018,59.329365 188.192108,60.345375 
	C186.842361,64.176857 189.608841,65.698364 192.173798,67.794876 
z"/>
<path fill="#272828" opacity="1.000000" stroke="none" 
	d="
M273.002014,465.897705 
	C273.435150,463.994324 271.874908,461.786255 273.888824,461.081512 
	C275.831909,460.401550 276.423004,462.772278 277.516846,463.892456 
	C278.776855,465.182892 279.939453,466.568451 281.306427,468.093475 
	C283.079437,465.807251 281.124084,463.089203 283.736206,460.922638 
	C283.736206,464.613251 284.063263,468.345673 283.599518,471.977081 
	C283.364288,473.819153 281.715973,473.033844 280.707153,471.982574 
	C278.805206,470.000580 277.558044,467.384155 274.792694,465.713379 
	C274.495239,467.978088 273.720947,469.876099 274.685059,471.802155 
	C273.882568,470.087158 272.363312,468.529327 273.002014,465.897705 
z"/>
<path fill="#121414" opacity="1.000000" stroke="none" 
	d="
M348.911682,467.308014 
	C348.963196,464.951263 348.963196,463.009399 348.963196,461.067505 
	C349.408020,461.047852 349.852844,461.028168 350.297668,461.008514 
	C350.297668,464.752289 350.598907,468.532501 350.152771,472.222351 
	C349.968475,473.746521 348.364227,472.938446 347.544617,471.981079 
	C345.657288,469.776581 343.787598,467.557007 341.145844,464.441467 
	C341.145844,468.004395 341.145844,470.353943 341.145844,472.703522 
	C340.722870,472.729919 340.299866,472.756317 339.876892,472.782715 
	C339.876892,469.228821 339.560516,465.635681 339.995117,462.135742 
	C340.257355,460.023895 341.696777,461.094818 342.753357,462.035400 
	C344.832367,463.886169 345.554138,467.197906 348.911682,467.308014 
z"/>
<path fill="#F4F5F5" opacity="1.000000" stroke="none" 
	d="
M322.762909,462.263184 
	C324.427490,459.995361 325.917908,458.728851 327.945801,461.661652 
	C331.438293,464.921021 331.018311,468.135193 328.368073,471.748413 
	C327.286469,473.146301 326.656769,474.522736 324.877869,472.761597 
	C321.100098,469.829346 321.146362,466.363525 322.762909,462.263184 
z"/>
<path fill="#1A1C1C" opacity="1.000000" stroke="none" 
	d="
M169.064362,464.667908 
	C169.829819,466.994751 171.879211,465.125275 173.036316,466.601776 
	C172.228622,468.202026 168.971817,465.750793 168.954880,469.093842 
	C168.929825,474.032623 173.603668,469.629700 174.802475,472.671417 
	C171.822952,473.098969 167.578018,474.271973 166.664581,472.267700 
	C165.297791,469.268646 165.374557,464.814911 166.631775,461.705414 
	C167.429642,459.732056 171.488205,460.981567 174.333145,461.175049 
	C173.091309,463.721710 169.037079,460.178223 169.064362,464.667908 
z"/>
<path fill="#272828" opacity="1.000000" stroke="none" 
	d="
M211.493835,465.150635 
	C211.627045,463.593079 210.103729,461.730682 212.169876,461.035522 
	C213.753784,460.502594 214.346466,462.171997 215.187622,463.120148 
	C216.587982,464.698517 217.965637,466.297058 219.557846,468.122070 
	C221.306564,465.779449 219.308472,463.044891 221.282578,460.453461 
	C222.722046,464.541443 222.012543,468.227448 221.870850,471.767609 
	C221.789825,473.791595 220.080994,473.185547 219.120438,472.133209 
	C217.224365,470.055847 215.472107,467.847260 213.291092,465.668396 
	C212.481781,465.714447 212.070541,465.630402 211.493835,465.150635 
z"/>
<path fill="#272828" opacity="1.000000" stroke="none" 
	d="
M129.989426,461.844604 
	C133.380569,460.398010 136.826660,460.791809 140.738647,461.638580 
	C134.963089,462.516022 136.806778,466.607513 136.578903,469.831116 
	C136.499023,470.960999 137.540817,472.795532 135.415482,472.983093 
	C132.774857,473.216125 134.006714,471.053375 133.768631,469.835114 
	C133.208939,466.970917 135.801331,462.578003 129.989426,461.844604 
z"/>
<path fill="#151717" opacity="1.000000" stroke="none" 
	d="
M232.949951,468.325195 
	C232.207809,473.732574 236.861755,470.221924 239.411514,472.836884 
	C235.516281,472.972198 231.354935,474.235199 230.495209,472.301392 
	C229.149643,469.274811 229.146515,464.849396 230.397812,461.753326 
	C231.226730,459.702240 235.243027,461.041138 238.116409,461.159546 
	C236.777069,463.605621 232.814804,460.193176 232.865814,464.318787 
	C232.905258,467.508087 236.096756,464.844604 236.874573,466.589935 
	C235.968613,468.086060 233.915421,466.287292 232.949951,468.325195 
z"/>
<path fill="#151717" opacity="1.000000" stroke="none" 
	d="
M360.850708,461.152405 
	C361.287415,461.996246 361.298828,462.651672 361.382324,463.297760 
	C361.866150,467.040131 358.536407,473.152710 367.731476,471.731537 
	C364.187195,473.220032 361.367676,473.843231 358.888123,472.263733 
	C357.541138,471.405701 359.121033,462.042938 360.850708,461.152405 
z"/>
<path fill="#1A1C1C" opacity="1.000000" stroke="none" 
	d="
M298.132141,472.515045 
	C295.932861,472.933136 292.594879,473.999573 292.150024,472.258636 
	C291.287354,468.882507 291.471283,465.013306 292.204742,461.557037 
	C292.535431,459.998657 295.450256,461.202545 297.582123,461.090027 
	C298.077271,461.399811 298.166748,461.611237 298.106537,462.133026 
	C295.648102,465.209656 295.512726,468.078033 297.772339,471.312195 
	C298.086456,471.784729 298.180939,471.993591 298.132141,472.515045 
z"/>
<path fill="#1A1C1C" opacity="1.000000" stroke="none" 
	d="
M377.140015,469.341614 
	C376.927307,465.949554 374.317902,464.190918 373.295959,461.205414 
	C377.770172,459.935883 377.838715,464.564575 379.622864,466.288269 
	C380.937164,467.558014 380.561707,470.589264 379.629150,472.750488 
	C379.513977,473.017395 378.309723,473.123718 377.845367,472.871429 
	C376.553131,472.169434 377.310669,470.825134 377.140015,469.341614 
z"/>
<path fill="#1A1C1C" opacity="1.000000" stroke="none" 
	d="
M257.920532,465.226379 
	C258.180634,463.413269 258.261292,461.233276 260.061676,461.036407 
	C262.229889,460.799347 261.909393,463.354309 262.664368,464.655670 
	C263.560394,466.200226 264.285431,467.905914 264.719513,469.633514 
	C264.983887,470.685852 266.800598,471.990997 265.156952,472.872131 
	C263.413116,473.807068 262.599365,472.215942 262.119202,470.708557 
	C261.970184,470.240723 261.796600,469.780701 261.325714,469.113892 
	C259.912292,467.885529 259.225677,466.501068 257.920532,465.226379 
z"/>
<path fill="#272828" opacity="1.000000" stroke="none" 
	d="
M297.857330,462.288788 
	C298.007629,461.968231 297.982697,461.578674 297.985229,461.383545 
	C301.219299,461.619873 302.926147,463.543579 303.195465,466.712830 
	C303.476562,470.020966 301.678436,471.913757 298.341187,472.860657 
	C297.988892,472.827637 297.995239,472.457825 298.006653,472.273254 
	C297.894257,468.929565 299.166290,465.724640 297.857330,462.288788 
z"/>
<path fill="#272828" opacity="1.000000" stroke="none" 
	d="
M322.661682,461.903259 
	C323.093567,465.289612 321.687103,468.858826 324.566803,472.159729 
	C321.732697,473.358246 320.636719,471.123871 319.933868,469.093384 
	C318.960724,466.282013 319.603119,463.656982 322.661682,461.903259 
z"/>
<path fill="#1A1C1C" opacity="1.000000" stroke="none" 
	d="
M157.883240,472.514465 
	C152.759491,472.330200 156.329254,468.024780 154.656158,465.969055 
	C154.360321,465.605591 155.097443,464.492828 155.181808,463.707245 
	C155.312683,462.488342 154.630539,460.728363 156.863876,460.980377 
	C159.024902,461.224152 157.986923,463.024658 158.045609,464.139648 
	C158.185379,466.795776 158.110840,469.463135 157.883240,472.514465 
z"/>
<path fill="#202222" opacity="1.000000" stroke="none" 
	d="
M199.113739,462.434387 
	C202.884384,461.398407 203.670776,464.192413 203.646530,466.856293 
	C203.624207,469.311432 203.112244,472.213165 199.023315,472.037109 
	C200.879227,468.811859 201.522171,465.797150 199.113739,462.434387 
z"/>
<path fill="#191B1B" opacity="1.000000" stroke="none" 
	d="
M150.056458,467.937683 
	C150.022003,469.572876 150.070801,470.736694 150.014755,471.895416 
	C149.979553,472.623383 149.544266,473.027039 148.747604,473.027588 
	C147.836960,473.028198 147.088974,472.849182 147.082855,471.751495 
	C147.065231,468.598511 147.079727,465.445404 147.075226,462.292328 
	C147.073669,461.205475 147.720032,460.924744 148.667435,460.922729 
	C149.753693,460.920410 150.031433,461.553986 150.035294,462.487488 
	C150.042175,464.146423 150.073990,465.805267 150.056458,467.937683 
z"/>
<path fill="#202222" opacity="1.000000" stroke="none" 
	d="
M328.374329,472.040771 
	C329.479919,468.957306 330.114929,465.900604 328.059143,462.408020 
	C331.021027,461.259399 331.885132,463.321899 332.180450,465.549011 
	C332.558655,468.400726 332.466431,471.261780 328.374329,472.040771 
z"/>
<path fill="#191B1B" opacity="1.000000" stroke="none" 
	d="
M194.601624,462.685425 
	C193.040131,465.983521 194.298096,468.985962 194.912231,472.161072 
	C189.885025,469.708801 189.514694,466.717896 193.666351,461.959290 
	C194.204483,462.032867 194.372833,462.189392 194.601624,462.685425 
z"/>
<path fill="#3A3C3C" opacity="1.000000" stroke="none" 
	d="
M257.475281,465.122864 
	C260.078400,464.730774 261.260864,465.674408 260.992981,468.513489 
	C260.529144,468.952972 259.921509,469.203003 259.573181,469.002502 
	C257.822205,467.994690 256.646088,471.502625 255.564438,469.901031 
	C254.623596,468.507782 256.906067,466.978912 257.475281,465.122864 
z"/>
<path fill="#676969" opacity="1.000000" stroke="none" 
	d="
M211.172974,465.330078 
	C211.767548,464.996887 212.231445,465.105988 212.808563,465.429504 
	C212.843353,468.110352 213.537125,470.681824 211.790024,474.225403 
	C210.380859,470.706085 211.170181,468.182465 211.172974,465.330078 
z"/>
<path fill="#F4F5F5" opacity="1.000000" stroke="none" 
	d="
M194.977417,462.954315 
	C194.543106,462.841431 194.424164,462.657959 194.170685,462.175446 
	C195.473251,459.977386 196.980347,458.725281 198.963852,461.695007 
	C199.020950,462.040527 199.001770,461.997864 199.022079,462.009735 
	C197.701309,461.912292 196.453476,462.208527 194.977417,462.954315 
z"/>
<path fill="#F4F5F5" opacity="1.000000" stroke="none" 
	d="
M196.534607,471.556519 
	C196.476440,471.592468 196.592773,471.520538 196.534607,471.556519 
z"/>
<path fill="#F4F5F5" opacity="1.000000" stroke="none" 
	d="
M197.438583,473.538513 
	C197.398712,473.475739 197.478455,473.601257 197.438583,473.538513 
z"/>
<path fill="#FEFEFE" opacity="1.000000" stroke="none" 
	d="
M230.358612,109.776039 
	C228.738571,109.777061 227.571976,109.783005 226.405411,109.777702 
	C225.278610,109.772583 224.497803,110.113693 224.437256,111.430359 
	C224.371582,112.858513 225.286957,113.161049 226.345474,113.013420 
	C229.301773,112.601082 229.919098,113.939491 229.851196,116.680557 
	C229.762405,120.263809 227.268127,119.044373 225.613571,119.061127 
	C215.948547,119.159027 206.281601,119.066475 196.616455,119.158287 
	C195.261017,119.171173 192.846634,118.051788 193.021866,121.015862 
	C193.165283,123.442070 195.256546,122.627892 196.498825,122.525650 
	C199.268906,122.297661 200.183563,123.157005 200.221970,126.073654 
	C200.264023,129.267731 198.531281,128.915527 196.466507,129.022415 
	C195.255676,129.085114 193.114960,127.937057 193.020599,130.424881 
	C192.909134,133.362778 195.387161,132.241058 196.669830,132.139282 
	C199.700470,131.898849 200.172043,133.259354 200.158646,135.909164 
	C200.063385,154.740753 200.020477,173.573868 200.192047,192.404388 
	C200.221527,195.640045 199.179703,196.186142 196.241318,196.173233 
	C170.910156,196.061783 145.578110,196.063248 120.246880,196.166855 
	C117.068001,196.179855 116.169846,195.746933 116.701889,192.124329 
	C124.538338,138.767227 168.031982,92.683464 221.687210,81.162468 
	C299.207153,64.517197 373.803345,115.928680 385.785339,194.266953 
	C385.859283,194.750351 385.794495,195.254944 385.794495,196.109268 
	C376.074463,196.109268 366.431152,196.109283 356.787811,196.109268 
	C339.955597,196.109268 323.122009,195.996445 306.292267,196.200363 
	C302.744995,196.243347 301.922180,195.282455 301.956512,191.813904 
	C302.139587,173.316956 302.119110,154.816605 301.969788,136.319046 
	C301.944031,133.131683 302.658386,131.732605 306.032928,132.167221 
	C307.291626,132.329330 309.338837,132.967773 309.200043,130.373230 
	C309.078247,128.096756 307.275269,129.125183 306.164124,128.988647 
	C304.226044,128.750488 301.955780,129.873779 301.896027,126.092728 
	C301.839600,122.521088 303.473206,122.402145 306.066956,122.562080 
	C307.453796,122.647591 309.381317,123.101967 309.167328,120.630646 
	C308.951691,118.140327 306.915527,119.164742 305.666321,119.154396 
	C295.834320,119.072983 286.001343,119.114937 276.168671,119.103439 
	C274.412628,119.101379 272.420654,119.648056 272.531921,116.583229 
	C272.613525,114.335464 272.629578,112.593559 275.629852,113.008873 
	C276.783936,113.168617 278.053528,113.084877 277.867065,111.285774 
	C277.644836,109.141876 275.962769,109.809448 274.808380,109.805893 
	C260.143066,109.760674 245.477539,109.776077 230.358612,109.776039 
z"/>
<path fill="#FAFAFA" opacity="1.000000" stroke="none" 
	d="
M203.577454,187.999786 
	C203.577499,170.514633 203.674789,153.528473 203.498276,136.545166 
	C203.461548,133.010590 204.520126,131.784012 207.986465,132.163696 
	C210.289581,132.415955 212.644073,132.228012 214.974701,132.187515 
	C216.040131,132.168991 216.917969,131.895355 216.873642,130.496567 
	C216.828079,129.058792 215.845215,128.993011 214.837646,128.981110 
	C212.340164,128.951569 209.842072,128.955795 207.344345,128.968979 
	C205.373871,128.979370 203.425262,129.443375 203.481598,126.163513 
	C203.530396,123.323318 204.379562,122.438538 207.201553,122.520851 
	C213.523941,122.705269 219.855453,122.577568 226.183243,122.577553 
	C248.830093,122.577492 271.476959,122.587341 294.123810,122.563683 
	C296.543335,122.561157 298.582275,122.261864 298.548706,125.989624 
	C298.515991,129.624130 296.403900,128.953781 294.332916,128.963272 
	C292.168182,128.973175 290.003174,128.950165 287.838654,128.974060 
	C286.684540,128.986816 285.366852,128.836838 285.466766,130.652206 
	C285.563110,132.403290 286.891327,132.141235 288.015381,132.209549 
	C288.181305,132.219635 288.348816,132.203079 288.514801,132.212936 
	C298.422485,132.801132 298.422485,132.801270 298.422485,143.029419 
	C298.422485,164.843674 298.277954,186.659653 298.541168,208.470734 
	C298.595581,212.979660 297.341797,214.501099 293.001190,213.829712 
	C291.374939,213.578186 289.676544,213.764267 288.012054,213.799271 
	C286.886444,213.822922 285.559265,213.600571 285.466553,215.351944 
	C285.370514,217.166885 286.690247,217.012955 287.842773,217.025894 
	C290.007294,217.050156 292.177063,217.125122 294.335754,217.011017 
	C296.888489,216.876114 298.613831,216.905487 298.569427,220.511459 
	C298.525604,224.066132 297.111694,224.488892 294.133179,224.480133 
	C265.325287,224.395447 236.516861,224.381256 207.709198,224.496384 
	C204.486008,224.509277 203.547272,223.641800 203.444305,220.356110 
	C203.324539,216.534210 205.502106,217.002563 207.820831,217.029221 
	C209.985306,217.054077 212.151459,217.074814 214.314590,217.015106 
	C215.384201,216.985596 216.773376,217.356140 216.861252,215.526321 
	C216.948059,213.719208 215.649277,213.824280 214.497849,213.805557 
	C212.167145,213.767670 209.818253,213.611618 207.508438,213.833267 
	C204.494263,214.122528 203.419617,213.111084 203.511566,209.978867 
	C203.721619,202.824707 203.577652,195.660126 203.577454,187.999786 
z"/>
<path fill="#FDFDFD" opacity="1.000000" stroke="none" 
	d="
M227.587585,335.990021 
	C227.587509,306.176056 227.615509,276.859650 227.567856,247.543320 
	C227.555801,240.125259 221.417969,235.881271 215.783859,239.306381 
	C212.589386,241.248352 211.909805,244.342163 211.918472,247.921097 
	C211.991531,278.070160 211.960098,308.219452 211.960098,338.368683 
	C211.960098,340.191650 211.960114,342.014618 211.960114,343.864502 
	C203.745285,342.899689 203.587708,342.727478 203.587692,334.926086 
	C203.587570,300.779175 203.647461,266.631989 203.500778,232.485687 
	C203.485077,228.829483 204.259766,227.763611 208.095490,227.788208 
	C236.744415,227.971909 265.395325,227.945984 294.044769,227.811172 
	C297.438263,227.795197 298.514618,228.523666 298.499695,232.125961 
	C298.354431,267.271698 298.277679,302.419342 298.557404,337.563446 
	C298.599396,342.837219 295.236694,342.847321 292.113037,343.888306 
	C290.972534,344.268402 290.222290,343.684052 290.232941,342.371857 
	C290.242401,341.206085 290.222137,340.040070 290.222107,338.874176 
	C290.221313,308.558380 290.199493,278.242523 290.248291,247.926804 
	C290.254669,243.973221 289.362030,240.703537 285.468872,238.880768 
	C282.566437,237.521866 279.941681,238.128342 277.530914,239.966553 
	C274.693909,242.129761 274.409882,245.285080 274.411102,248.520493 
	C274.415009,258.847870 274.412415,269.175232 274.412384,279.502594 
	C274.412354,300.657013 274.291046,321.812744 274.515625,342.964783 
	C274.560028,347.146423 273.549530,348.671875 269.206299,349.124084 
	C257.058014,350.389038 244.990723,350.387634 232.846039,349.115448 
	C228.595718,348.670258 226.908493,347.252411 227.533768,342.976044 
	C227.843765,340.855927 227.587616,338.653046 227.587585,335.990021 
z"/>
<path fill="#FBFBFB" opacity="1.000000" stroke="none" 
	d="
M302.035889,238.028168 
	C302.035889,235.867813 302.199646,234.182434 302.001801,232.540634 
	C301.590393,229.127090 302.308624,227.060776 306.399170,227.835922 
	C307.614166,228.066162 309.268250,228.211746 309.160187,226.081741 
	C309.054718,224.002640 307.394592,224.349335 306.191559,224.469116 
	C303.199219,224.767014 301.993286,224.075760 301.862854,220.564987 
	C301.705566,216.330429 304.070007,217.020477 306.520233,217.024368 
	C307.783875,217.026367 309.355743,217.394104 309.183319,215.204910 
	C309.037811,213.357727 307.636566,213.891083 306.580627,213.794586 
	C305.272766,213.675079 303.869110,213.860031 302.676941,213.435669 
	C301.562500,213.038986 302.006989,211.673218 302.085907,210.758850 
	C302.299988,208.278046 304.317474,209.262604 305.568726,209.257767 
	C322.391418,209.192734 339.214478,209.214096 356.037445,209.214111 
	C365.198486,209.214111 374.359497,209.215500 383.520538,209.213272 
	C385.330994,209.212830 387.155792,208.791870 387.164185,211.772156 
	C387.195404,222.902664 386.342712,233.904755 382.576965,244.663284 
	C382.576965,240.957108 382.667297,237.248199 382.556000,233.545364 
	C382.385773,227.884247 379.439728,224.521408 374.762238,224.437012 
	C369.885864,224.349030 366.832336,227.813553 366.806274,233.790680 
	C366.744507,247.948349 366.322510,262.127594 366.966461,276.256195 
	C367.330292,284.238007 364.909851,290.448944 359.305878,296.073944 
	C358.036011,294.549530 358.615509,292.692749 358.611237,291.044037 
	C358.562103,272.222443 358.565002,253.400620 358.595734,234.578934 
	C358.600494,231.681335 358.421143,228.886658 356.200928,226.715057 
	C353.984833,224.547455 351.317993,223.917145 348.373779,224.798508 
	C345.414551,225.684387 343.547058,227.728897 343.048859,230.770752 
	C342.755249,232.563446 342.796631,234.421371 342.795502,236.250031 
	C342.780975,259.902130 342.520691,283.559174 342.957520,307.203186 
	C343.078766,313.764954 340.839600,317.805176 334.833099,320.808075 
	C334.743103,318.910980 334.591431,317.192017 334.590485,315.472961 
	C334.575500,288.489563 334.552765,261.506104 334.611572,234.522858 
	C334.619659,230.822632 334.114197,227.489807 330.636383,225.450668 
	C325.226379,222.278671 319.021912,226.120956 318.991577,232.796021 
	C318.911346,250.451447 318.964203,268.107483 318.964142,285.763275 
	C318.964111,299.921234 318.878479,314.080139 319.034973,328.236359 
	C319.067017,331.133331 318.280121,332.817169 315.576080,333.985260 
	C311.205658,335.873169 306.979645,338.095398 302.035889,340.495270 
	C302.035889,305.992645 302.035889,272.257751 302.035889,238.028168 
z"/>
<path fill="#FBFBFB" opacity="1.000000" stroke="none" 
	d="
M200.117264,240.010818 
	C200.117264,273.492950 200.117264,306.477600 200.117264,339.908447 
	C194.226959,338.407928 189.381638,335.293335 184.315002,332.722168 
	C182.182236,331.639862 183.071335,329.462494 183.068832,327.755402 
	C183.023621,296.931610 183.036224,266.107727 183.034882,235.283844 
	C183.034821,233.951035 183.148636,232.602402 182.987335,231.288391 
	C182.494736,227.275497 180.031754,224.927475 176.156784,224.521820 
	C172.041687,224.091034 168.992722,226.004181 167.838074,230.097504 
	C167.353592,231.815048 167.436890,233.721512 167.435364,235.542236 
	C167.412979,262.034088 167.419998,288.525940 167.419998,315.017822 
	C167.419998,316.827271 167.419998,318.636719 167.419998,321.028259 
	C161.961349,317.707306 158.860474,314.423309 159.011932,307.592255 
	C159.536285,283.944458 159.216904,260.277924 159.208130,236.618515 
	C159.207504,234.954590 159.235413,233.278061 159.052979,231.629196 
	C158.560074,227.174469 155.940109,224.632782 151.534042,224.496490 
	C147.075745,224.358566 144.391464,226.898834 143.604492,231.242661 
	C143.311386,232.860611 143.427109,234.560089 143.426285,236.222412 
	C143.416550,256.022552 143.419998,275.822723 142.904282,295.804443 
	C139.310410,291.108459 134.875748,287.292542 135.076294,280.284210 
	C135.519318,264.801636 135.247406,249.297546 135.195557,233.802475 
	C135.177231,228.322052 132.954620,225.280518 128.743652,224.552185 
	C123.815880,223.699875 119.840233,226.999588 119.497742,232.536011 
	C119.267021,236.265640 119.453773,240.021072 118.902992,243.788101 
	C115.768959,233.194183 114.889084,222.384567 115.003502,211.439377 
	C115.032631,208.653687 116.857079,209.225342 118.420174,209.224487 
	C144.412186,209.210251 170.404221,209.206314 196.396210,209.232773 
	C198.059875,209.234467 200.235504,208.469299 200.154297,211.621628 
	C200.082428,214.411438 198.185028,213.669769 196.655090,213.785385 
	C196.489410,213.797913 196.317093,213.761368 196.156128,213.791565 
	C194.887482,214.029739 192.819626,212.972778 192.998810,215.616608 
	C193.148544,217.825882 194.945618,217.018646 196.044998,216.982788 
	C198.599915,216.899445 200.450699,216.878403 200.240448,220.503052 
	C200.075928,223.339401 199.753555,224.906845 196.440491,224.498550 
	C195.225113,224.348755 193.158478,223.590439 193.014008,226.055923 
	C192.863297,228.627686 194.963348,227.993576 196.196442,227.818634 
	C199.699631,227.321594 200.434601,228.956024 200.161987,232.019592 
	C199.941315,234.499191 200.117249,237.014099 200.117264,240.010818 
z"/>
<path fill="#F8F8F8" opacity="1.000000" stroke="none" 
	d="
M224.124680,319.000061 
	C224.124634,327.498260 224.195740,335.497772 224.049362,343.493286 
	C224.026917,344.719391 225.433975,347.469696 222.375900,347.002319 
	C219.841293,346.614899 216.494370,347.276642 215.279953,343.892456 
	C214.908524,342.857422 215.207367,341.580109 215.207336,340.413757 
	C215.206436,310.253906 215.206482,280.094055 215.207199,249.934189 
	C215.207230,248.934494 215.158661,247.930603 215.231216,246.935867 
	C215.448959,243.951447 216.543396,241.661087 220.035370,241.862183 
	C223.207962,242.044891 224.151596,244.143112 224.134384,247.016251 
	C224.095444,253.514526 224.124405,260.013214 224.124542,266.511749 
	C224.124924,283.841187 224.124680,301.170593 224.124680,319.000061 
z"/>
<path fill="#FEFEFE" opacity="1.000000" stroke="none" 
	d="
M278.042908,331.996521 
	C278.042908,304.218445 278.042877,276.940002 278.043060,249.661530 
	C278.043060,248.497208 278.020447,247.332230 278.051270,246.168701 
	C278.118500,243.629532 279.434082,242.106216 281.946564,241.850082 
	C284.771637,241.562057 286.424072,243.144928 286.758362,245.772980 
	C287.070984,248.230972 286.950073,250.749222 286.950897,253.240982 
	C286.960480,282.515442 286.959442,311.789886 286.954193,341.064331 
	C286.953522,344.898346 282.949524,347.984955 279.224945,347.198334 
	C277.332062,346.798553 278.107330,345.418854 278.084320,344.471039 
	C277.987335,340.481445 278.043091,336.488098 278.042908,331.996521 
z"/>
<path fill="#F7F7F7" opacity="1.000000" stroke="none" 
	d="
M322.205322,324.574493 
	C322.205292,294.859985 322.201630,265.594849 322.214844,236.329712 
	C322.215607,234.673187 322.120331,232.963058 322.484436,231.372833 
	C323.030762,228.987183 324.704651,227.694626 327.248047,227.970230 
	C329.527740,228.217255 330.837036,229.587524 331.034271,231.866150 
	C331.162964,233.352798 331.122711,234.855865 331.122955,236.351578 
	C331.127167,263.288818 330.807983,290.232330 331.339691,317.159058 
	C331.480438,324.286560 328.100494,327.074097 322.205322,329.693298 
	C322.205322,327.870239 322.205322,326.447052 322.205322,324.574493 
z"/>
<path fill="#F7F7F7" opacity="1.000000" stroke="none" 
	d="
M179.794678,296.000122 
	C179.794647,306.329834 179.711075,316.160645 179.841141,325.988647 
	C179.885086,329.308716 179.197906,329.692291 176.327133,327.944824 
	C172.497971,325.613983 170.676193,322.987488 170.730301,318.088135 
	C171.030243,290.934784 170.872986,263.776398 170.876740,236.619736 
	C170.876953,235.120972 170.860214,233.618805 170.950760,232.124222 
	C171.103607,229.601273 172.465286,228.124985 175.007370,227.947952 
	C177.875076,227.748215 179.315277,229.400833 179.709244,232.030182 
	C179.904861,233.335739 179.792099,234.689850 179.792328,236.021988 
	C179.795731,255.848022 179.794678,275.674072 179.794678,296.000122 
z"/>
<path fill="#F7F7F7" opacity="1.000000" stroke="none" 
	d="
M346.205322,292.997681 
	C346.205322,273.542969 346.200470,254.587662 346.214661,235.632355 
	C346.215759,234.142883 346.119751,232.595963 346.475220,231.177551 
	C347.012238,229.034576 348.505188,227.797653 350.863007,227.923264 
	C353.159332,228.045578 354.618286,229.261139 354.953430,231.498367 
	C355.197723,233.129196 355.119446,234.814041 355.120209,236.474823 
	C355.129303,255.762680 354.678497,275.066071 355.347534,294.330719 
	C355.613037,301.975891 351.844299,306.089783 346.205322,310.974335 
	C346.205322,304.607666 346.205322,299.052368 346.205322,292.997681 
z"/>
<path fill="#F7F7F7" opacity="1.000000" stroke="none" 
	d="
M155.794678,243.027496 
	C155.794678,265.640625 155.794678,287.758667 155.794678,310.595856 
	C150.540588,306.217285 146.462814,302.566162 146.683029,295.043121 
	C147.252670,275.582458 146.873917,256.094055 146.874313,236.616745 
	C146.874344,235.451447 146.849335,234.285202 146.886520,233.121017 
	C146.983215,230.091568 148.099182,227.809738 151.546677,227.948502 
	C154.657745,228.073730 155.762726,230.206421 155.787369,233.043533 
	C155.814835,236.206268 155.794312,239.369431 155.794678,243.027496 
z"/>
<path fill="#ECECEC" opacity="1.000000" stroke="none" 
	d="
M115.495834,201.520660 
	C116.189674,198.656509 118.208145,199.551208 119.678879,199.548203 
	C145.141632,199.496628 170.604599,199.539062 196.067276,199.469757 
	C198.748856,199.462463 200.291946,199.621933 200.286804,203.087738 
	C200.281281,206.809372 198.041122,205.979630 196.051178,205.980988 
	C170.421906,205.998520 144.792435,205.944977 119.163597,206.052856 
	C115.959518,206.066330 114.385277,205.409195 115.495834,201.520660 
z"/>
<path fill="#ECECEC" opacity="1.000000" stroke="none" 
	d="
M358.000305,199.511093 
	C366.655609,199.511185 374.814392,199.648041 382.964539,199.443420 
	C386.191559,199.362427 386.792389,200.762482 386.970337,203.563324 
	C387.215393,207.420517 384.472656,205.926682 382.951996,205.931732 
	C357.321320,206.016861 331.690247,205.997238 306.059265,205.983734 
	C304.046448,205.982666 301.875671,206.759430 301.863556,203.051010 
	C301.852051,199.530304 303.442749,199.461975 306.072021,199.473251 
	C323.214508,199.546844 340.357483,199.511063 358.000305,199.511093 
z"/>
<path fill="#F4F5F5" opacity="1.000000" stroke="none" 
	d="
M379.133453,249.974304 
	C380.553162,260.867981 375.759735,269.423096 371.140839,278.142853 
	C369.447723,277.358643 370.248138,276.035950 370.243530,275.101074 
	C370.176727,261.621704 370.215179,248.141907 370.185608,234.662292 
	C370.178223,231.298767 370.342468,227.890640 374.812744,227.989914 
	C378.920319,228.081100 379.155670,231.328629 379.139862,234.502319 
	C379.115021,239.494675 379.133362,244.487228 379.133453,249.974304 
z"/>
<path fill="#FDFDFD" opacity="1.000000" stroke="none" 
	d="
M131.960114,240.097519 
	C131.960114,253.125244 131.960114,265.667969 131.960114,278.210693 
	C127.063477,270.003326 121.979370,262.110626 122.797287,252.035065 
	C123.293686,245.920044 122.887421,239.732422 122.904648,233.577484 
	C122.912842,230.648087 123.697647,228.105057 127.162170,227.981415 
	C130.917953,227.847366 131.831833,230.511017 131.939056,233.624313 
	C132.007751,235.618256 131.957199,237.616302 131.960114,240.097519 
z"/>
<path fill="#FFFFFF" opacity="1.000000" stroke="none" 
	d="
M269.053528,117.944046 
	C263.828461,119.930267 258.534027,118.868813 253.296585,119.064247 
	C247.992355,119.262177 242.674927,119.123848 237.363419,119.100189 
	C235.181610,119.090469 232.807861,119.926590 232.902435,115.918442 
	C232.990158,112.199394 235.182510,113.065315 237.148499,113.058403 
	C246.443710,113.025719 255.745621,113.245384 265.031250,112.945442 
	C268.789673,112.824036 269.656921,114.232445 269.053528,117.944046 
z"/>
<path fill="#FBFBFB" opacity="1.000000" stroke="none" 
	d="
M319.208862,395.267700 
	C320.785736,400.358521 320.864685,405.136810 319.927795,409.918030 
	C318.845673,415.440216 315.342499,419.173004 310.799316,419.884857 
	C305.880188,420.655579 300.541229,417.941681 298.081757,412.994019 
	C294.872803,406.538727 294.971191,399.841003 297.694427,393.255127 
	C299.423706,389.072937 302.656860,386.682220 307.335083,386.684967 
	C313.127502,386.688416 317.090057,389.384064 319.208862,395.267700 
z"/>
<path fill="#F4F5F5" opacity="1.000000" stroke="none" 
	d="
M126.427238,403.827698 
	C128.190125,399.817322 129.753281,396.170502 131.479675,392.142883 
	C133.874908,396.701935 135.697021,401.058685 137.200485,406.102570 
	C133.695541,406.102570 130.584976,406.100555 127.474426,406.103516 
	C126.071815,406.104858 125.828224,405.360077 126.427238,403.827698 
z"/>
<path fill="#FAFAFA" opacity="1.000000" stroke="none" 
	d="
M297.560669,461.992065 
	C300.684906,465.024597 301.117279,468.221161 298.313660,471.845032 
	C296.024231,472.116669 293.990479,471.707733 294.795013,469.188324 
	C295.557190,466.801697 292.119080,462.979919 297.560669,461.992065 
z"/>
<path fill="#272828" opacity="1.000000" stroke="none" 
	d="
M265.277710,152.029663 
	C266.317169,154.403397 266.619934,156.532516 266.621338,158.707886 
	C266.630005,172.037415 266.545380,185.367798 266.687286,198.695816 
	C266.719513,201.722473 265.870972,202.768951 262.753784,202.691925 
	C254.760925,202.494354 246.758560,202.540894 238.763031,202.673340 
	C236.132309,202.716888 235.308746,201.810272 235.328873,199.213440 
	C235.432251,185.884720 235.177582,172.550385 235.463165,159.226929 
	C235.643326,150.822067 240.285461,144.966232 247.213837,143.159256 
	C254.233948,141.328354 260.716766,144.409576 265.277710,152.029663 
z"/>
<path fill="#191B1B" opacity="1.000000" stroke="none" 
	d="
M290.209564,181.999863 
	C290.209229,188.157516 290.115723,193.817474 290.252747,199.471848 
	C290.310638,201.860992 289.489990,202.511826 287.120636,202.636551 
	C274.422943,203.304993 274.426697,203.377121 274.426697,190.529938 
	C274.426697,178.548920 274.421600,166.567917 274.433197,154.586899 
	C274.434662,153.092606 274.390503,151.579407 274.598633,150.107666 
	C275.243469,145.548492 278.422424,142.711365 282.597107,142.828857 
	C286.937256,142.951004 290.099884,146.160233 290.164093,151.048706 
	C290.297394,161.197556 290.207642,171.349335 290.209564,181.999863 
z"/>
<path fill="#202222" opacity="1.000000" stroke="none" 
	d="
M227.600647,168.000702 
	C227.600586,178.489243 227.470535,188.480591 227.674057,198.465134 
	C227.741470,201.772964 226.740723,202.675858 223.455612,202.683090 
	C211.953583,202.708420 211.953857,202.838791 211.953857,191.473038 
	C211.953857,178.487747 211.941910,165.502426 211.959091,152.517151 
	C211.967224,146.363892 214.668701,142.925323 219.520233,142.795380 
	C224.593552,142.659485 227.557083,146.202545 227.594681,152.517868 
	C227.624420,157.512039 227.600677,162.506516 227.600647,168.000702 
z"/>
<path fill="#070909" opacity="1.000000" stroke="none" 
	d="
M264.984131,129.003143 
	C268.637177,129.003311 271.794830,128.947510 274.948669,129.032974 
	C276.102539,129.064255 277.921112,128.407578 277.780884,130.662521 
	C277.649567,132.774826 275.894196,132.122925 274.741699,132.130508 
	C266.104218,132.187454 257.466156,132.161896 248.828278,132.162033 
	C242.183762,132.162140 235.537048,132.252396 228.896393,132.092285 
	C227.416214,132.056595 224.558014,133.428574 224.701752,130.453125 
	C224.836441,127.664314 227.614288,129.096542 229.106064,129.079239 
	C240.898499,128.942398 252.693222,129.003159 264.984131,129.003143 
z"/>
<path fill="#070909" opacity="1.000000" stroke="none" 
	d="
M267.954315,213.839111 
	C270.771729,213.840668 273.098145,213.810410 275.423004,213.857590 
	C276.539673,213.880264 277.892975,213.684509 277.811737,215.519608 
	C277.729950,217.366455 276.311401,216.969070 275.263519,216.975342 
	C268.618683,217.015106 261.973450,216.996597 255.328369,216.996765 
	C246.191376,216.996994 237.054001,217.035675 227.917816,216.949997 
	C226.702621,216.938599 224.508713,217.935745 224.616470,215.365967 
	C224.718628,212.929962 226.838730,213.890076 228.090759,213.883286 
	C241.214417,213.812164 254.338623,213.839218 267.954315,213.839111 
z"/>
<path fill="#272828" opacity="1.000000" stroke="none" 
	d="
M243.068787,239.821457 
	C247.826035,236.429916 252.993607,238.816193 257.905273,238.161896 
	C258.971008,238.019913 258.973969,239.143204 259.062744,239.970459 
	C259.431458,243.406006 261.271240,245.471802 264.780029,245.725098 
	C266.781433,245.869568 266.638092,247.178375 266.637909,248.534042 
	C266.634247,275.498779 266.614807,302.463562 266.673157,329.428192 
	C266.678040,331.688934 265.993317,332.818848 263.655975,332.992188 
	C261.382446,333.160858 259.580048,334.861481 259.529449,336.742310 
	C259.427032,340.545898 257.239288,340.384796 254.651230,340.271545 
	C252.657654,340.184357 250.657196,340.247528 248.659836,340.255737 
	C245.768936,340.267639 242.560562,341.095001 242.487839,336.298981 
	C242.464874,334.783997 240.716370,333.190247 239.025375,333.125732 
	C235.411972,332.988007 235.318802,330.873596 235.325577,328.105804 
	C235.389511,301.973450 235.386642,275.840820 235.325333,249.708481 
	C235.319672,247.295151 235.419144,245.775177 238.524902,245.477921 
	C241.158279,245.225876 242.815903,243.112564 243.068787,239.821457 
z"/>
<path fill="#FEFEFE" opacity="1.000000" stroke="none" 
	d="
M239.067139,187.979828 
	C239.067154,177.985519 239.035599,168.488693 239.077332,158.992188 
	C239.109619,151.642990 244.024399,146.354034 250.866791,146.187454 
	C257.591522,146.023743 262.983398,151.368362 263.044891,158.587143 
	C263.149933,170.915298 262.986389,183.246078 263.141235,195.573181 
	C263.177399,198.449738 262.286438,199.238754 259.503113,199.136185 
	C254.012497,198.933884 248.496109,198.847931 243.015823,199.160217 
	C239.583755,199.355789 238.690521,198.103073 239.023575,194.970535 
	C239.251282,192.828842 239.067154,190.643356 239.067139,187.979828 
z"/>
<path fill="#FEFEFE" opacity="1.000000" stroke="none" 
	d="
M284.884918,199.106506 
	C279.451019,200.009430 277.708923,198.373077 277.892700,192.974258 
	C278.344757,179.695007 278.081665,166.389801 278.012299,153.095535 
	C277.994568,149.693909 278.195312,146.257263 282.511658,146.312408 
	C286.365631,146.361649 286.977081,149.551956 286.970795,152.812332 
	C286.943298,167.104019 286.984741,181.395920 286.913696,195.687302 
	C286.907593,196.912231 287.924011,198.912491 284.884918,199.106506 
z"/>
<path fill="#F8F8F8" opacity="1.000000" stroke="none" 
	d="
M215.222046,153.502625 
	C215.340759,151.902817 215.288696,150.698975 215.613098,149.606995 
	C216.313843,147.248108 218.010818,145.911636 220.483337,146.322968 
	C222.619354,146.678314 224.065353,148.027786 224.067413,150.433655 
	C224.080765,165.933243 224.175812,181.433502 224.049026,196.931946 
	C224.014816,201.114258 220.547775,198.573166 218.700256,199.040009 
	C216.393158,199.622986 215.106934,198.818741 215.157547,195.948090 
	C215.327896,186.284454 215.222061,176.615936 215.221939,166.949295 
	C215.221878,162.615967 215.221939,158.282654 215.222046,153.502625 
z"/>
<path fill="#FFFFFF" opacity="1.000000" stroke="none" 
	d="
M239.067993,295.000000 
	C239.067993,280.856934 239.102051,267.213745 239.037750,253.570969 
	C239.025650,251.002777 238.810089,248.653580 242.103882,247.785248 
	C243.091492,247.524902 243.940079,246.375427 244.647263,245.472626 
	C248.879135,240.070175 253.477112,240.011627 257.437958,245.370621 
	C257.635498,245.637909 257.765594,246.062775 258.023865,246.161682 
	C264.689728,248.715057 263.051392,254.436264 263.059570,259.463654 
	C263.094788,281.092834 263.045013,302.722168 263.109589,324.351227 
	C263.118317,327.275269 263.184204,329.907196 259.664062,330.981445 
	C258.816071,331.240234 257.750305,332.184265 257.566467,332.991272 
	C256.455872,337.865692 252.687866,336.827881 249.367722,336.950378 
	C247.597137,337.015656 246.149475,336.928436 245.650681,334.735687 
	C245.446930,333.839874 244.737579,332.640533 243.970901,332.357361 
	C237.633240,330.016815 239.105530,324.687378 239.080109,319.957581 
	C239.036301,311.805267 239.067993,303.652557 239.067993,295.000000 
z"/>
</svg>